<?xml version="1.0" encoding="UTF-8" standalone="no"?>
<svg
   height="24px"
   viewBox="0 -960 960 960"
   width="24px"
   fill="#e8eaed"
   version="1.1"
   id="svg1"
   sodipodi:docname="favicon.svg"
   inkscape:version="1.3.2 (091e20e, 2023-11-25)"
   xml:space="preserve"
   xmlns:inkscape="http://www.inkscape.org/namespaces/inkscape"
   xmlns:sodipodi="http://sodipodi.sourceforge.net/DTD/sodipodi-0.dtd"
   xmlns="http://www.w3.org/2000/svg"
   xmlns:svg="http://www.w3.org/2000/svg"><defs
     id="defs1" /><sodipodi:namedview
     id="namedview1"
     pagecolor="#505050"
     bordercolor="#eeeeee"
     borderopacity="1"
     inkscape:showpageshadow="0"
     inkscape:pageopacity="0"
     inkscape:pagecheckerboard="0"
     inkscape:deskcolor="#505050"
     inkscape:zoom="36.986984"
     inkscape:cx="12.382734"
     inkscape:cy="7.9622605"
     inkscape:window-width="1712"
     inkscape:window-height="1040"
     inkscape:window-x="0"
     inkscape:window-y="341"
     inkscape:window-maximized="1"
     inkscape:current-layer="svg1" /><circle
     style="fill:#ffff00;stroke-width:38.7575"
     id="path2"
     cx="480"
     cy="-480"
     r="484.79999" /><g
     style="fill:#000000"
     id="g2"
     transform="matrix(1.714339,0,0,1.8625938,60.00075,-936.32058)"><g
       id="g1">
	<path
   d="m 447.645,154.542 c -3.1,-4.2 -9.4,-14.6 -22,-17.8 -12.5,-3.1 -34.7,7 -38.7,31.4 -7.1,31.5 -36.6,24.1 -39.7,23 -20.9,-8.4 -37.6,-32.4 -49.1,-50.2 -3.1,-5.2 -10.5,-17.8 -26.1,-17.8 -9.7,0 -181.3,80.9 -240.5,128.6 -12.8,10.3 -30.4,27.3 -31.5,52.4 -1,24.1 14.6,48.1 37.6,57.5 13.6,5.2 28.2,5.2 39.7,5.2 h 365 c 37.7,-3.3 45.8,-40.8 46,-53.3 8.5,-61.7 -17.7,-120.3 -40.7,-159 z m 0,149.6 c 0,27 -19.7,22 -28.5,22 h -343.8 c -17.8,0 -32,0 -35.6,-20.9 1,-7.3 6.3,-14.6 16.7,-23 18.4,-14.5 7.420018,-13.44571 27.420018,-24.64571 l 24.169992,18.03565 c 6.3,9.4 20.06167,8.01627 29.46167,0.71627 9.4,-6.3 11.5,-14.73565 4.2,-24.13565 l -18.14666,-18.06124 c 8.4,-4.2 43.29498,-16.90932 51.89498,-21.00932 l 14.8,19.8 c 6.3,9.4 18.8,11.5 28.2,4.2 9.4,-6.3 11.5,-18.8 4.2,-28.2 l -9.9,-13.2 c 18.3,-8.7 36.6,-17.8 54.9,-28.4 15.7,24.1 36.6,50.2 63.8,59.6 44.6,15.1 78.6,-12.7 90.1,-38.9 16.7,32.4 31.3,74.3 26.1,116.1 z"
   id="path1-3"
   sodipodi:nodetypes="cccccscccsccccsscccccccccccccccc" />
</g></g></svg>
